<svg id="74c60328-a800-4a6f-84d5-5092ce93840c" data-name="Layer 1" xmlns="http://www.w3.org/2000/svg" xmlns:xlink="http://www.w3.org/1999/xlink" width="236.42" height="83.74" viewBox="0 0 236.42 83.74"><defs><clipPath id="7636d47d-b6d4-44e9-a29c-527dc146b5e9" transform="translate(-453 -335.8)"><rect x="453" y="335.8" width="284.2" height="97.2" fill="none"/></clipPath></defs><title>fhs-logo</title><g clip-path="url(#7636d47d-b6d4-44e9-a29c-527dc146b5e9)"><path d="M653.31,371.06l14.92,23.52h.07V371.06h3.57v29h-4.12L653,376.79h-.08v23.28h-3.57v-29Zm-15.07,29h-3.76v-29h3.76Zm-27-29v25.76h15v3.25H607.51v-29Zm-31.22,0v14.47l14.36-14.47h4.88l-11.94,11.7,12.42,17.31H595L584.78,385.4l-4.72,4.51v10.16H576.3v-29Zm-33.19,0,14.91,23.52h.08V371.06h3.57v29h-4.12l-14.8-23.28h-.08v23.28h-3.56v-29Zm-22.56,0,11.06,29h-4.16l-3.1-8.74h-12L513,400.07h-3.84l11-29Zm2.61,17-4.72-13.52h-.08l-4.79,13.52Zm-32.28-3.85a5.32,5.32,0,0,0,2.08-.8,4.28,4.28,0,0,0,1.43-1.58,6.16,6.16,0,0,0-.65-6.16,4.88,4.88,0,0,0-3.85-1.38h-9.36v10.12h7.85a15.44,15.44,0,0,0,2.5-.2m-.79-13.17a9.15,9.15,0,0,1,6.32,2,7,7,0,0,1,2.28,5.56,9,9,0,0,1-1.17,4.63,6,6,0,0,1-3.74,2.72v.08a5.09,5.09,0,0,1,2,.82,4.42,4.42,0,0,1,1.23,1.36,6.18,6.18,0,0,1,.67,1.76,18.28,18.28,0,0,1,.34,2q.08,1.06.12,2.16a16.84,16.84,0,0,0,.2,2.15,12.31,12.31,0,0,0,.45,2,5,5,0,0,0,.9,1.69h-4.21a2.49,2.49,0,0,1-.53-1.22,11,11,0,0,1-.18-1.73c0-.63-.06-1.32-.08-2.05a15.21,15.21,0,0,0-.24-2.15c-.11-.7-.24-1.38-.4-2a4.9,4.9,0,0,0-.75-1.67,3.77,3.77,0,0,0-1.35-1.14,4.93,4.93,0,0,0-2.22-.42h-9.2v12.39h-3.77v-29Zm-22.25,0v3.25H456.77v9.22h13v3.25h-13v13.29H453v-29Z" transform="translate(-453 -335.8)" fill="#54565a"/></g><polygon points="194.93 14.12 194.02 19.16 218.12 23.33 219.03 18.29 194.93 14.12" fill="#929497"/><polygon points="194.47 16.64 194.02 19.16 218.12 23.33 218.58 20.81 194.47 16.64" fill="#929497"/><g clip-path="url(#7636d47d-b6d4-44e9-a29c-527dc146b5e9)"><path d="M688.61,361.82l.78-4.39a1.71,1.71,0,0,0-1.4-2l-17.68-3.06a1.74,1.74,0,0,0-2,1.41l-.79,4.39a1.72,1.72,0,0,0,1.41,2l17.68,3.06a1.75,1.75,0,0,0,2-1.41" transform="translate(-453 -335.8)" fill="#929497"/><path d="M667.5,358.17l.78-4.33a1.73,1.73,0,0,0,1.4,2l17.69,3.06a1.75,1.75,0,0,0,2-1.41l-.78,4.32a1.74,1.74,0,0,1-2,1.41l-17.68-3.06a1.72,1.72,0,0,1-1.41-2" transform="translate(-453 -335.8)" fill="#929497"/><path d="M635.85,361.06a2.34,2.34,0,0,1,2.09-1.92l.31-1.72a1.56,1.56,0,0,0-.82-1.67.89.89,0,0,1-.46-.94c.19-1.08.56-3.16.92-5.15a16.5,16.5,0,0,1,4.45-8.61l5-5.13a.41.41,0,0,1,.67.44l-2.86,7a3.6,3.6,0,0,0,2.42,4.86l1.57.41a.89.89,0,0,1,.65,1l-1.1,6.15a.91.91,0,0,1-1,.74l-1.64-.2a3.37,3.37,0,0,0-3.58,2.76l-.15.84a2.3,2.3,0,0,1,1.3,2.5l-.45,2.51a.86.86,0,0,1-1,.7l-6.11-1.06a.84.84,0,0,1-.69-1Z" transform="translate(-453 -335.8)" fill="#929497"/><path d="M635.39,363.57l.46-2.51a2.34,2.34,0,0,1,2.09-1.92l4.41.77h0a2.3,2.3,0,0,1,1.3,2.5l-.45,2.51a.88.88,0,0,1-1,.7l-6.11-1.06a.86.86,0,0,1-.7-1" transform="translate(-453 -335.8)" fill="#929497"/><path d="M640.14,359.52l2.21.39a2.3,2.3,0,0,1,1.3,2.5l-.45,2.51a.88.88,0,0,1-1,.7l-3.06-.53Z" transform="translate(-453 -335.8)" fill="#929497"/><path d="M456.15,406.26v5.58H463v-5.58h1.73v13H463V413.3h-6.84v5.95h-1.73v-13Z" transform="translate(-453 -335.8)" fill="#929497"/><path d="M474.45,406.26l5.07,13h-1.91l-1.42-3.91H470.7l-1.45,3.91h-1.77l5.06-13Zm1.2,7.62-2.17-6.06h0l-2.2,6.06Z" transform="translate(-453 -335.8)" fill="#929497"/><path d="M484.05,406.26l6.84,10.53h0V406.26h1.64v13h-1.89l-6.79-10.43h0v10.43h-1.63v-13Z" transform="translate(-453 -335.8)" fill="#929497"/><path d="M501.28,406.26a6.47,6.47,0,0,1,4.62,1.53,6.11,6.11,0,0,1,1.62,4.65,10.68,10.68,0,0,1-.36,2.91,5.33,5.33,0,0,1-1.13,2.12,4.82,4.82,0,0,1-1.95,1.32,7.64,7.64,0,0,1-2.8.46h-4.46v-13Zm.15,11.53c.19,0,.43,0,.73,0a4.22,4.22,0,0,0,.92-.22,4.54,4.54,0,0,0,1-.5,3.33,3.33,0,0,0,.86-.89,5.12,5.12,0,0,0,.63-1.41,7.64,7.64,0,0,0,.24-2.05,8.73,8.73,0,0,0-.22-2.08,4.09,4.09,0,0,0-.75-1.57,3.34,3.34,0,0,0-1.34-1,5.39,5.39,0,0,0-2-.34h-2.91v10.08Z" transform="translate(-453 -335.8)" fill="#929497"/><path d="M516.44,419.25h-1.73v-5.31l-5-7.68h2.05l3.9,6.18,3.8-6.18h2l-5,7.68Z" transform="translate(-453 -335.8)" fill="#929497"/><path d="M526.71,406.26l4.1,10.91,4.11-10.91h2.36v13h-1.63V408.44h0l-4.06,10.81h-1.47L526,408.44h0v10.81h-1.64v-13Z" transform="translate(-453 -335.8)" fill="#929497"/><path d="M547.05,406.26l5.08,13h-1.91l-1.42-3.91h-5.49l-1.46,3.91h-1.76l5-13Zm1.2,7.62-2.16-6.06h0l-2.2,6.06Z" transform="translate(-453 -335.8)" fill="#929497"/><path d="M556.68,406.26l6.84,10.53h0V406.26h1.64v13H563.3l-6.79-10.43h0v10.43h-1.64v-13Z" transform="translate(-453 -335.8)" fill="#929497"/><path d="M582.46,408a3.64,3.64,0,0,0-2.21-.62,5.46,5.46,0,0,0-1.07.1,3.13,3.13,0,0,0-.94.37,1.93,1.93,0,0,0-.65.68,2.13,2.13,0,0,0-.25,1.06,1.36,1.36,0,0,0,.36,1,2.69,2.69,0,0,0,.94.61,7.59,7.59,0,0,0,1.34.39l1.52.33c.52.13,1,.27,1.52.43a5.25,5.25,0,0,1,1.34.67,3.15,3.15,0,0,1,.94,1.05,3.24,3.24,0,0,1,.36,1.6,3.3,3.3,0,0,1-.47,1.78,3.79,3.79,0,0,1-1.19,1.2,5.14,5.14,0,0,1-1.63.67,7.81,7.81,0,0,1-1.79.21,7.65,7.65,0,0,1-2.06-.27,5.24,5.24,0,0,1-1.71-.83,4,4,0,0,1-1.17-1.42,4.66,4.66,0,0,1-.42-2h1.63a2.94,2.94,0,0,0,.32,1.41,2.85,2.85,0,0,0,.84,1,3.55,3.55,0,0,0,1.21.56,5.58,5.58,0,0,0,1.42.18,5.86,5.86,0,0,0,1.17-.11,3.25,3.25,0,0,0,1.06-.37,2.22,2.22,0,0,0,.77-.72,2.14,2.14,0,0,0,.29-1.16,1.59,1.59,0,0,0-.36-1.09,2.61,2.61,0,0,0-.94-.69,6.8,6.8,0,0,0-1.34-.42l-1.52-.34c-.51-.12-1-.25-1.52-.4a5.39,5.39,0,0,1-1.33-.6,2.84,2.84,0,0,1-.95-1,2.77,2.77,0,0,1-.35-1.48,3.36,3.36,0,0,1,1.46-2.88,4.74,4.74,0,0,1,1.51-.69,6.7,6.7,0,0,1,1.74-.23,6.84,6.84,0,0,1,1.85.24,4.06,4.06,0,0,1,1.5.74,3.67,3.67,0,0,1,1,1.28,4.54,4.54,0,0,1,.41,1.85h-1.64A2.68,2.68,0,0,0,582.46,408Z" transform="translate(-453 -335.8)" fill="#929497"/><path d="M598.16,406.26v1.45h-7.24v4.13h6.74v1.46h-6.74v4.49h7.29v1.46h-9v-13Z" transform="translate(-453 -335.8)" fill="#929497"/><path d="M607.87,406.26a4.25,4.25,0,0,1,2.9.91,3.12,3.12,0,0,1,1.05,2.49,3.89,3.89,0,0,1-.54,2.07,2.72,2.72,0,0,1-1.72,1.22v0a2.27,2.27,0,0,1,.92.36,1.9,1.9,0,0,1,.56.61,2.61,2.61,0,0,1,.31.79,9.1,9.1,0,0,1,.16.91c0,.32,0,.64,0,1s.05.65.09,1a5.93,5.93,0,0,0,.21.9,2.23,2.23,0,0,0,.41.76h-1.93a1.11,1.11,0,0,1-.24-.55,5.7,5.7,0,0,1-.08-.77c0-.29,0-.59,0-.92a6,6,0,0,0-.11-1q-.07-.48-.18-.9a2,2,0,0,0-.35-.75,1.7,1.7,0,0,0-.61-.51,2.29,2.29,0,0,0-1-.19h-4.22v5.55h-1.73v-13Zm.36,5.89a2.55,2.55,0,0,0,1-.35,1.93,1.93,0,0,0,.65-.71,2.68,2.68,0,0,0-.3-2.76,2.24,2.24,0,0,0-1.76-.62h-4.29v4.53h3.6A6.93,6.93,0,0,0,608.23,412.15Z" transform="translate(-453 -335.8)" fill="#929497"/><path d="M618.49,419.25l-4.56-13h1.85l3.72,11.26h0l3.75-11.26h1.8l-4.62,13Z" transform="translate(-453 -335.8)" fill="#929497"/><path d="M629.7,406.26v13H628v-13Z" transform="translate(-453 -335.8)" fill="#929497"/><path d="M641.92,408.1a4,4,0,0,0-2.36-.69,4.21,4.21,0,0,0-2,.43A4,4,0,0,0,636.2,409a5.36,5.36,0,0,0-.79,1.69,7.47,7.47,0,0,0-.25,2,8.39,8.39,0,0,0,.25,2.1,5.18,5.18,0,0,0,.79,1.73,4.06,4.06,0,0,0,1.38,1.18,4.28,4.28,0,0,0,2,.43,3.82,3.82,0,0,0,1.52-.28,3.49,3.49,0,0,0,1.9-2,5.13,5.13,0,0,0,.33-1.5h1.73a5.89,5.89,0,0,1-1.7,3.82,5.45,5.45,0,0,1-3.93,1.37,6.17,6.17,0,0,1-2.63-.52,5.17,5.17,0,0,1-1.88-1.43,6.07,6.07,0,0,1-1.12-2.14,9.15,9.15,0,0,1-.37-2.66,8.63,8.63,0,0,1,.4-2.67A6.57,6.57,0,0,1,635,408a5.4,5.4,0,0,1,1.93-1.46,6.18,6.18,0,0,1,2.65-.54,6.77,6.77,0,0,1,1.93.27,5.33,5.33,0,0,1,1.62.8,4.68,4.68,0,0,1,1.18,1.32,5,5,0,0,1,.62,1.83H643.2A3.19,3.19,0,0,0,641.92,408.1Z" transform="translate(-453 -335.8)" fill="#929497"/><path d="M657.63,406.26v1.45h-7.24v4.13h6.74v1.46h-6.74v4.49h7.29v1.46h-9v-13Z" transform="translate(-453 -335.8)" fill="#929497"/><path d="M667.71,408a3.64,3.64,0,0,0-2.21-.62,5.46,5.46,0,0,0-1.07.1,3.13,3.13,0,0,0-.94.37,1.93,1.93,0,0,0-.65.68,2,2,0,0,0-.25,1.06,1.36,1.36,0,0,0,.36,1,2.6,2.6,0,0,0,.94.61,7.59,7.59,0,0,0,1.34.39l1.52.33c.51.13,1,.27,1.52.43a5.25,5.25,0,0,1,1.34.67,3,3,0,0,1,1.3,2.65,3.3,3.3,0,0,1-.47,1.78,3.79,3.79,0,0,1-1.19,1.2,5.14,5.14,0,0,1-1.63.67,7.88,7.88,0,0,1-1.79.21,7.6,7.6,0,0,1-2.06-.27,5.24,5.24,0,0,1-1.71-.83,3.87,3.87,0,0,1-1.17-1.42,4.66,4.66,0,0,1-.43-2h1.64a2.94,2.94,0,0,0,.32,1.41,2.85,2.85,0,0,0,.84,1,3.46,3.46,0,0,0,1.21.56,5.56,5.56,0,0,0,1.41.18,6,6,0,0,0,1.18-.11,3.25,3.25,0,0,0,1.06-.37,2.22,2.22,0,0,0,.77-.72,2.14,2.14,0,0,0,.29-1.16,1.59,1.59,0,0,0-.36-1.09,2.61,2.61,0,0,0-.94-.69,6.8,6.8,0,0,0-1.34-.42L665,413.2c-.51-.12-1-.25-1.52-.4a5.46,5.46,0,0,1-1.34-.6,2.91,2.91,0,0,1-.94-1,2.77,2.77,0,0,1-.36-1.48,3.53,3.53,0,0,1,.4-1.7,3.57,3.57,0,0,1,1.07-1.18,4.64,4.64,0,0,1,1.51-.69,6.7,6.7,0,0,1,1.74-.23,6.84,6.84,0,0,1,1.85.24,4.06,4.06,0,0,1,1.5.74,3.67,3.67,0,0,1,1,1.28,4.54,4.54,0,0,1,.41,1.85h-1.64A2.68,2.68,0,0,0,667.71,408Z" transform="translate(-453 -335.8)" fill="#929497"/></g></svg>